<?xml version="1.0" ?><!DOCTYPE svg  PUBLIC '-//W3C//DTD SVG 1.1//EN'  'http://www.w3.org/Graphics/SVG/1.1/DTD/svg11.dtd'><svg enable-background="new 0 0 140 140" id="Layer_17" version="1.1" viewBox="0 0 140 140" xml:space="preserve" xmlns="http://www.w3.org/2000/svg" xmlns:xlink="http://www.w3.org/1999/xlink"><g><defs><filter filterUnits="userSpaceOnUse" height="97.071106" id="Adobe_OpacityMaskFilter" width="97.0710449" x="42.9289551" y="42.928894"><feColorMatrix type="matrix" values="1 0 0 0 0  0 1 0 0 0  0 0 1 0 0  0 0 0 1 0"/></filter></defs><mask height="97.071106" id="SVGID_1_" maskUnits="userSpaceOnUse" width="97.0710449" x="42.9289551" y="42.928894"><g filter="url(#Adobe_OpacityMaskFilter)"><radialGradient cx="70" cy="70" gradientTransform="matrix(0.7071068 0.7071068 -0.2721382 0.2721382 39.5522003 1.4528493)" gradientUnits="userSpaceOnUse" id="SVGID_2_" r="106.5634918"><stop offset="0.3" style="stop-color:#FFFFFF"/><stop offset="0.85" style="stop-color:#FFFFFF;stop-opacity:0"/></radialGradient><rect fill="url(#SVGID_2_)" height="140" width="140"/></g></mask><linearGradient gradientUnits="userSpaceOnUse" id="SVGID_3_" x1="69.9999847" x2="140.0000153" y1="69.9999542" y2="139.9999847"><stop offset="0" style="stop-color:#000000;stop-opacity:0.4"/><stop offset="0.8" style="stop-color:#000000;stop-opacity:0"/></linearGradient><polygon fill="url(#SVGID_3_)" mask="url(#SVGID_1_)" points="140,85.8580933    97.0710449,42.928894 42.9289551,97.0710449 85.8580933,140 140,140  "/><defs><filter filterUnits="userSpaceOnUse" height="97.071106" id="Adobe_OpacityMaskFilter_1_" width="97.0710449" x="42.9289551" y="42.928894"><feColorMatrix type="matrix" values="1 0 0 0 0  0 1 0 0 0  0 0 1 0 0  0 0 0 1 0"/></filter></defs><mask height="97.071106" id="SVGID_4_" maskUnits="userSpaceOnUse" width="97.0710449" x="42.9289551" y="42.928894"><g filter="url(#Adobe_OpacityMaskFilter_1_)"><radialGradient cx="70" cy="70" gradientTransform="matrix(0.7071068 0.7071068 -0.3889087 0.3889087 47.7261353 -6.7210855)" gradientUnits="userSpaceOnUse" id="SVGID_5_" r="79.5565872"><stop offset="0.3" style="stop-color:#FFFFFF"/><stop offset="0.85" style="stop-color:#FFFFFF;stop-opacity:0"/></radialGradient><rect fill="url(#SVGID_5_)" height="140" width="140"/></g></mask><linearGradient gradientUnits="userSpaceOnUse" id="SVGID_6_" x1="69.9999847" x2="140.0000153" y1="69.9999542" y2="139.9999847"><stop offset="0" style="stop-color:#24292E;stop-opacity:0.6"/><stop offset="0.5" style="stop-color:#24292E;stop-opacity:0"/></linearGradient><polygon fill="url(#SVGID_6_)" mask="url(#SVGID_4_)" points="140,85.8580933    97.0710449,42.928894 42.9289551,97.0710449 85.8580933,140 140,140  "/><path d="M90,100H50c-5.5228462,0-10-4.47715-10-10V50c0-5.5228462,4.4771538-10,10-10h40   c5.52285,0,10,4.4771538,10,10v40C100,95.52285,95.52285,100,90,100z" fill="#24292E"/><g><defs><path d="M90,41c4.9626236,0,9,4.0373802,9,9v40c0,4.9626236-4.0373764,9-9,9H50c-4.9626198,0-9-4.0373764-9-9V50     c0-4.9626198,4.0373802-9,9-9H90 M90,40H50c-5.52285,0-10,4.47715-10,10v40c0,5.52285,4.47715,10,10,10h40     c5.52285,0,10-4.47715,10-10V50C100,44.47715,95.52285,40,90,40L90,40z" id="SVGID_97_"/></defs><clipPath id="SVGID_8_"><use overflow="visible" xlink:href="#SVGID_97_"/></clipPath><linearGradient gradientUnits="userSpaceOnUse" id="SVGID_9_" x1="20" x2="120" y1="20" y2="120"><stop offset="0" style="stop-color:#FFFFFF;stop-opacity:0.8"/><stop offset="0.6" style="stop-color:#FFFFFF;stop-opacity:0"/></linearGradient><rect clip-path="url(#SVGID_8_)" fill="url(#SVGID_9_)" height="100" width="100" x="20" y="20"/></g><g><defs><path d="M90,41c4.9626236,0,9,4.0373802,9,9v40c0,4.9626236-4.0373764,9-9,9H50c-4.9626198,0-9-4.0373764-9-9V50     c0-4.9626198,4.0373802-9,9-9H90 M90,40H50c-5.52285,0-10,4.47715-10,10v40c0,5.52285,4.47715,10,10,10h40     c5.52285,0,10-4.47715,10-10V50C100,44.47715,95.52285,40,90,40L90,40z" id="SVGID_100_"/></defs><clipPath id="SVGID_11_"><use overflow="visible" xlink:href="#SVGID_100_"/></clipPath><linearGradient gradientUnits="userSpaceOnUse" id="SVGID_12_" x1="20" x2="120" y1="20" y2="120"><stop offset="0.4" style="stop-color:#000000;stop-opacity:0"/><stop offset="1" style="stop-color:#000000;stop-opacity:0.2"/></linearGradient><rect clip-path="url(#SVGID_11_)" fill="url(#SVGID_12_)" height="100" width="100" x="20" y="20"/></g><g><defs><path d="M50,99c-4.9624023,0-9-4.0375977-9-9V50c0-4.9624023,4.0375977-9,9-9h40c4.9624023,0,9,4.0375977,9,9v40     c0,4.9624023-4.0375977,9-9,9H50z" id="SVGID_103_"/></defs><clipPath id="SVGID_14_"><use overflow="visible" xlink:href="#SVGID_103_"/></clipPath><radialGradient cx="45" cy="45" gradientUnits="userSpaceOnUse" id="SVGID_15_" r="45"><stop offset="0" style="stop-color:#FFFFFF;stop-opacity:0.2"/><stop offset="1" style="stop-color:#FFFFFF;stop-opacity:0"/></radialGradient><circle clip-path="url(#SVGID_14_)" cx="45" cy="45" fill="url(#SVGID_15_)" r="45"/></g><g><defs><path d="M90,99.1499023H50c-5.0454102,0-9.1499023-4.1044922-9.1499023-9.1499023V50     c0-5.0454102,4.1044922-9.1499023,9.1499023-9.1499023h40c5.0454102,0,9.1499023,4.1044922,9.1499023,9.1499023v40     C99.1499023,95.0454102,95.0454102,99.1499023,90,99.1499023z M50,41.1499023     c-4.8798828,0-8.8500977,3.9702148-8.8500977,8.8500977v40c0,4.8798828,3.9702148,8.8500977,8.8500977,8.8500977h40     c4.8798828,0,8.8500977-3.9702148,8.8500977-8.8500977V50c0-4.8798828-3.9702148-8.8500977-8.8500977-8.8500977H50z" id="SVGID_106_"/></defs><clipPath id="SVGID_17_"><use overflow="visible" xlink:href="#SVGID_106_"/></clipPath><linearGradient gradientUnits="userSpaceOnUse" id="SVGID_18_" x1="20" x2="120" y1="20" y2="120"><stop offset="0.2" style="stop-color:#FFFFFF;stop-opacity:0.8"/><stop offset="0.7" style="stop-color:#FFFFFF;stop-opacity:0"/></linearGradient><rect clip-path="url(#SVGID_17_)" fill="url(#SVGID_18_)" height="100" width="100" x="20" y="20"/></g><path d="M84.1437378,56.3496094l-25.4770699-0.9329414l-7,16.1666679   l4.1811104,13.0434952L71.2209473,100H90c5.5228271,0,10-4.4771729,10-10V72.2058716L84.1437378,56.3496094z" opacity="0.12"/><path d="M70,50.4933929c-11.0499992,0-20,8.9500008-20,20c0,8.8499985,5.7249985,16.3250046,13.6749992,18.9749985   c1.0000038,0.1750031,1.3750038-0.4249954,1.3750038-0.9499969c0-0.4749985-0.0250015-2.0499954-0.0250015-3.7249985   C60,85.7183914,58.7000008,83.5683975,58.2999992,82.4433975C58.0750008,81.8684006,57.0999985,80.093399,56.25,79.6183929   c-0.7000008-0.3749924-1.7000008-1.2999954-0.0250015-1.3249969c1.5750008-0.0250015,2.7000008,1.4499969,3.0750008,2.0500031   c1.7999992,3.0249939,4.6749992,2.1749954,5.8250008,1.6499939c0.1750031-1.2999954,0.6999969-2.1749954,1.2750015-2.6749954   c-4.4500008-0.5-9.1000023-2.2249985-9.1000023-9.875c0-2.1750031,0.7749977-3.9749985,2.0499992-5.375   c-0.2000008-0.5-0.9000015-2.5499992,0.2000008-5.2999992c0,0,1.6749992-0.5250015,5.4999962,2.0499992   c1.6000061-0.4500008,3.3000031-0.6749992,5-0.6749992c1.7000046,0,3.4000015,0.2249985,5,0.6749992   c3.8250046-2.5999985,5.5-2.0499992,5.5-2.0499992c1.0999985,2.75,0.4000015,4.7999992,0.2000046,5.2999992   c1.2750015,1.4000015,2.0499954,3.1750031,2.0499954,5.375c0,7.6750031-4.6749954,9.375-9.125,9.875   c0.7250061,0.625,1.3500061,1.8250046,1.3500061,3.7000046c0,2.6749954-0.0250015,4.8249969-0.0250015,5.5   c0,0.5249939,0.375,1.1499939,1.375,0.9499969C84.5161133,86.7200394,89.9978027,79.085907,90,70.4933929   C90,59.4433937,81.0500031,50.4933929,70,50.4933929z" fill="#FFFFFF"/><path d="M75,88.5184021c0,0.5249939,0.375,1.1499939,1.375,0.9499969   c6.3763962-2.1526031,11.1213531-7.3024139,12.8798904-13.5624008c0,0-2.2773666,5.0059357-6.7548904,8.7190018   C78.65625,87.8125,75,88.5184021,75,88.5184021z" fill="#24292E" opacity="0.4"/></g></svg>