<?xml version="1.0" ?><!DOCTYPE svg  PUBLIC '-//W3C//DTD SVG 1.1//EN'  'http://www.w3.org/Graphics/SVG/1.1/DTD/svg11.dtd'><svg enable-background="new 0 0 140 140" id="Layer_17" version="1.1" viewBox="0 0 140 140" xml:space="preserve" xmlns="http://www.w3.org/2000/svg" xmlns:xlink="http://www.w3.org/1999/xlink"><g><defs><filter filterUnits="userSpaceOnUse" height="97.071106" id="Adobe_OpacityMaskFilter" width="97.0710449" x="42.9289551" y="42.928894"><feColorMatrix type="matrix" values="1 0 0 0 0  0 1 0 0 0  0 0 1 0 0  0 0 0 1 0"/></filter></defs><mask height="97.071106" id="SVGID_1_" maskUnits="userSpaceOnUse" width="97.0710449" x="42.9289551" y="42.928894"><g filter="url(#Adobe_OpacityMaskFilter)"><radialGradient cx="70" cy="70" gradientTransform="matrix(0.7071068 0.7071068 -0.2721382 0.2721382 39.5522003 1.4528493)" gradientUnits="userSpaceOnUse" id="SVGID_2_" r="106.5634918"><stop offset="0.3" style="stop-color:#FFFFFF"/><stop offset="0.85" style="stop-color:#FFFFFF;stop-opacity:0"/></radialGradient><rect fill="url(#SVGID_2_)" height="140" width="140"/></g></mask><linearGradient gradientUnits="userSpaceOnUse" id="SVGID_3_" x1="69.9999847" x2="140.0000153" y1="69.9999542" y2="139.9999847"><stop offset="0" style="stop-color:#000000;stop-opacity:0.4"/><stop offset="0.8" style="stop-color:#000000;stop-opacity:0"/></linearGradient><polygon fill="url(#SVGID_3_)" mask="url(#SVGID_1_)" points="140,85.8580933    97.0710449,42.928894 42.9289551,97.0710449 85.8580933,140 140,140  "/><defs><filter filterUnits="userSpaceOnUse" height="97.071106" id="Adobe_OpacityMaskFilter_1_" width="97.0710449" x="42.9289551" y="42.928894"><feColorMatrix type="matrix" values="1 0 0 0 0  0 1 0 0 0  0 0 1 0 0  0 0 0 1 0"/></filter></defs><mask height="97.071106" id="SVGID_4_" maskUnits="userSpaceOnUse" width="97.0710449" x="42.9289551" y="42.928894"><g filter="url(#Adobe_OpacityMaskFilter_1_)"><radialGradient cx="70" cy="70" gradientTransform="matrix(0.7071068 0.7071068 -0.3889087 0.3889087 47.7261353 -6.7210855)" gradientUnits="userSpaceOnUse" id="SVGID_5_" r="79.5565872"><stop offset="0.3" style="stop-color:#FFFFFF"/><stop offset="0.85" style="stop-color:#FFFFFF;stop-opacity:0"/></radialGradient><rect fill="url(#SVGID_5_)" height="140" width="140"/></g></mask><linearGradient gradientUnits="userSpaceOnUse" id="SVGID_6_" x1="69.9999847" x2="140.0000153" y1="69.9999542" y2="139.9999847"><stop offset="0" style="stop-color:#006595;stop-opacity:0.6"/><stop offset="0.5" style="stop-color:#006595;stop-opacity:0"/></linearGradient><polygon fill="url(#SVGID_6_)" mask="url(#SVGID_4_)" points="140,85.8580933    97.0710449,42.928894 42.9289551,97.0710449 85.8580933,140 140,140  "/><path d="M90,100H50c-5.5228462,0-10-4.47715-10-10V50c0-5.5228462,4.4771538-10,10-10h40   c5.52285,0,10,4.4771538,10,10v40C100,95.52285,95.52285,100,90,100z" fill="#006595"/><g><defs><path d="M90,41c4.9626236,0,9,4.0373802,9,9v40c0,4.9626236-4.0373764,9-9,9H50c-4.9626198,0-9-4.0373764-9-9V50     c0-4.9626198,4.0373802-9,9-9H90 M90,40H50c-5.52285,0-10,4.47715-10,10v40c0,5.52285,4.47715,10,10,10h40     c5.52285,0,10-4.47715,10-10V50C100,44.47715,95.52285,40,90,40L90,40z" id="SVGID_137_"/></defs><clipPath id="SVGID_8_"><use overflow="visible" xlink:href="#SVGID_137_"/></clipPath><linearGradient gradientUnits="userSpaceOnUse" id="SVGID_9_" x1="20" x2="120" y1="20" y2="120"><stop offset="0" style="stop-color:#FFFFFF;stop-opacity:0.8"/><stop offset="0.6" style="stop-color:#FFFFFF;stop-opacity:0"/></linearGradient><rect clip-path="url(#SVGID_8_)" fill="url(#SVGID_9_)" height="100" width="100" x="20" y="20"/></g><g><defs><path d="M90,41c4.9626236,0,9,4.0373802,9,9v40c0,4.9626236-4.0373764,9-9,9H50c-4.9626198,0-9-4.0373764-9-9V50     c0-4.9626198,4.0373802-9,9-9H90 M90,40H50c-5.52285,0-10,4.47715-10,10v40c0,5.52285,4.47715,10,10,10h40     c5.52285,0,10-4.47715,10-10V50C100,44.47715,95.52285,40,90,40L90,40z" id="SVGID_140_"/></defs><clipPath id="SVGID_11_"><use overflow="visible" xlink:href="#SVGID_140_"/></clipPath><linearGradient gradientUnits="userSpaceOnUse" id="SVGID_12_" x1="20" x2="120" y1="20" y2="120"><stop offset="0.4" style="stop-color:#000000;stop-opacity:0"/><stop offset="1" style="stop-color:#000000;stop-opacity:0.2"/></linearGradient><rect clip-path="url(#SVGID_11_)" fill="url(#SVGID_12_)" height="100" width="100" x="20" y="20"/></g><g><defs><path d="M50,99c-4.9624023,0-9-4.0375977-9-9V50c0-4.9624023,4.0375977-9,9-9h40c4.9624023,0,9,4.0375977,9,9v40     c0,4.9624023-4.0375977,9-9,9H50z" id="SVGID_143_"/></defs><clipPath id="SVGID_14_"><use overflow="visible" xlink:href="#SVGID_143_"/></clipPath><radialGradient cx="45" cy="45" gradientUnits="userSpaceOnUse" id="SVGID_15_" r="45"><stop offset="0" style="stop-color:#FFFFFF;stop-opacity:0.2"/><stop offset="1" style="stop-color:#FFFFFF;stop-opacity:0"/></radialGradient><circle clip-path="url(#SVGID_14_)" cx="45" cy="45" fill="url(#SVGID_15_)" r="45"/></g><g><defs><path d="M90,99.1499023H50c-5.0454102,0-9.1499023-4.1044922-9.1499023-9.1499023V50     c0-5.0454102,4.1044922-9.1499023,9.1499023-9.1499023h40c5.0454102,0,9.1499023,4.1044922,9.1499023,9.1499023v40     C99.1499023,95.0454102,95.0454102,99.1499023,90,99.1499023z M50,41.1499023     c-4.8798828,0-8.8500977,3.9702148-8.8500977,8.8500977v40c0,4.8798828,3.9702148,8.8500977,8.8500977,8.8500977h40     c4.8798828,0,8.8500977-3.9702148,8.8500977-8.8500977V50c0-4.8798828-3.9702148-8.8500977-8.8500977-8.8500977H50z" id="SVGID_146_"/></defs><clipPath id="SVGID_17_"><use overflow="visible" xlink:href="#SVGID_146_"/></clipPath><linearGradient gradientUnits="userSpaceOnUse" id="SVGID_18_" x1="20" x2="120" y1="20" y2="120"><stop offset="0.2" style="stop-color:#FFFFFF;stop-opacity:0.8"/><stop offset="0.7" style="stop-color:#FFFFFF;stop-opacity:0"/></linearGradient><rect clip-path="url(#SVGID_17_)" fill="url(#SVGID_18_)" height="100" width="100" x="20" y="20"/></g><path d="M89.1324463,50.8441772   c-0.5357666-0.5219116-1.2755127-0.8447266-2.0915527-0.8447266H69.9956055h-17.045166   c-0.8139648,0-1.5515137,0.3228149-2.0856934,0.8447266C50.3306885,51.3660889,50,52.0871582,50,52.883606v17.1152954v17.1152344   c0,0.7964478,0.3306885,1.5180664,0.8647461,2.0405273L61.7102051,100H90c5.5228271,0,10-4.4771729,10-10V61.711731   L89.1324463,50.8441772z" opacity="0.12"/><path d="M87.0409164,49.9994431H52.9504166C51.3227043,49.9994431,50,51.2907143,50,52.8836365v34.2305069   c0,1.5929337,1.3227043,2.8864136,2.9504166,2.8864136h34.0904999C88.672966,90.0005569,90,88.707077,90,87.1141434V52.8836365   C90,51.2907143,88.672966,49.9994431,87.0409164,49.9994431z M61.865551,84.0846176h-5.9377213V64.9955292h5.9377213V84.0846176z    M58.8978043,62.387455c-1.9053879,0-3.4419861-1.5413551-3.4419861-3.4408188   c0-1.8989296,1.5365982-3.4403152,3.4419861-3.4403152c1.8978271,0,3.4386482,1.5413857,3.4386482,3.4403152   C62.3364525,60.8460999,60.7956314,62.387455,58.8978043,62.387455z M84.0861664,84.0846176h-5.9310532v-9.2830429   c0-2.2136154-0.0391083-5.06147-3.0838623-5.06147c-3.0871964,0-3.5580978,2.412735-3.5580978,4.9030228v9.4414902h-5.9257202   V64.9955292h5.6870499v2.6096268h0.0813293c0.7910309-1.5007095,2.7279663-3.0833054,5.6142731-3.0833054   c6.0060501,0,7.1160812,3.9525528,7.1160812,9.0936966V84.0846176z" fill="#FFFFFF"/><path d="M50.5043449,88.7274323c0.5305672,0.7678528,1.4287491,1.2731247,2.4460716,1.2731247   h34.0904999C88.672966,90.0005569,90,88.707077,90,87.1141434c0,0-0.7291641,0.7816925-8.7083359,1.0941925   C52.9740372,89.3173752,50.5043449,88.7274323,50.5043449,88.7274323z" fill="#006595" opacity="0.4"/></g></svg>